<svg xmlns="http://www.w3.org/2000/svg" width="340" height="349" viewBox="0 0 340 349"><g transform="translate(-2257 -483)"><g transform="translate(2257 483)" fill="none" stroke="#989898" stroke-width="20"><ellipse cx="170" cy="174.5" rx="170" ry="174.5" stroke="none"/><ellipse cx="170" cy="174.5" rx="160" ry="164.5" fill="none"/></g><path d="M2404.725,817.781l-71.254-43.268,10.11-12.637a53.151,53.151,0,0,1,8.128-8.762c4.859-4.125,5.712-5.468,13.428-8.09s8.815-.78,19.2-2.4,19.612,2.732,22.321-4.071c1.195-3,1.53-12.986,1.53-12.986s.519-5.7-1.53-10.153c-3.666-7.967-5.852-7.3-13.69-15.155s-9.2-6.425-16.692-17.937-9.86-13.572-12.812-28.333-1.756-12.395-1.756-26.827-1.312-18.522,0-31.49,2.042-12.911,5.248-20.38,2.541-6.027,7.124-10.621,3.659-3.5,11.206-7.755,9.258-5.68,19.436-8.128,10.732-2.078,20.972-2.493,11.458-.469,19.986.83,8.505,2.749,14.433,5.2,4.925,3.357,9.63,7.421,4.594,3.445,9.188,8.834,5.477,5.948,9.187,12.721,3.187,7.027,4.6,14.564a57.549,57.549,0,0,1,1.055,13v34.984c0,8.324.426,8.6-1.429,17.219s-4.123,9.62-8.244,15.9a36.969,36.969,0,0,1-8.242,9.233l-10.5,10.5-11.809,10.5s-4.469,4.107-6.437,8.7-1.968,4.006-1.435,9.67-.041,8.722,3.567,12.986,3.674,4.149,10.907,4.071,15.7,0,15.7,0a51.107,51.107,0,0,1,13.705,1.825s3.9.483,4.188.571c6.276,1.88,11.516,8.09,11.516,8.09l5.139,6.662s6.652,8.877,12.075,15.385c2.354,2.825-69.891,42.086-68.929,42.621" fill="#989898" stroke="#989898" stroke-width="20"/></g></svg>