<svg xmlns="http://www.w3.org/2000/svg" xmlns:xlink="http://www.w3.org/1999/xlink" width="549" height="549" viewBox="0 0 549 549"><defs><clipPath id="b"><rect width="549" height="549"/></clipPath></defs><g id="a" clip-path="url(#b)"><g transform="translate(-3751 1663)"><g transform="translate(4001.272 -1877.992) rotate(45)"><path d="M136.076,318.805V163.239l-.241.029-86.776-.046H34.61s-6.781.621-11.31-.2c-3.715-.647-8.6-2.181-11.92-4.774-15.174-11.868-15.174-31.11,0-42.978L144.634,11.051a39.5,39.5,0,0,1,8.492-5.036C168.342-2.873,189.989-1.91,203.812,8.9L337.066,113.123c15.174,11.868,15.174,31.109,0,42.978a40.739,40.739,0,0,1-5.034,3.479,21.409,21.409,0,0,1-4.718,2.648c-2.359.963-21.549,1.041-21.549,1.041H213.787V318.805a38.855,38.855,0,1,1-77.711,0Z" transform="translate(139.515 63.427)" fill="#989898"/><path d="M0,0H339.769" transform="translate(143.844 210.555)" fill="#989898"/></g><g transform="translate(4049.36 -898.697) rotate(-135)"><path d="M136.076,318.805V163.239l-.241.029-86.776-.046H34.61s-6.781.621-11.31-.2c-3.715-.647-8.6-2.181-11.92-4.774-15.174-11.868-15.174-31.11,0-42.978L144.634,11.051a39.5,39.5,0,0,1,8.492-5.036C168.342-2.873,189.989-1.91,203.812,8.9L337.066,113.123c15.174,11.868,15.174,31.109,0,42.978a40.739,40.739,0,0,1-5.034,3.479,21.409,21.409,0,0,1-4.718,2.648c-2.359.963-21.549,1.041-21.549,1.041H213.787V318.805a38.855,38.855,0,1,1-77.711,0Z" transform="translate(139.515 63.427)" fill="#989898"/><path d="M0,0H339.769" transform="translate(143.844 210.555)" fill="#989898"/></g></g></g></svg>