<svg xmlns="http://www.w3.org/2000/svg" width="413" height="413" viewBox="0 0 413 413"><g transform="translate(-4745 -1800)"><path d="M191.5,0C297.263,0,383,85.737,383,191.5S297.263,383,191.5,383,0,297.263,0,191.5,85.737,0,191.5,0Z" transform="translate(4760 1815)" fill="none" stroke="#fb0" stroke-width="30"/><path d="M4766,934.46c-14.619,9.9-9.021,35.282-8.013,115.925,1.36,48.932-5.04,86.692,8.013,99.8,10.834,9.726,31.3,1.008,106.9-40.322s79.1-44.62,78.627-67.539c-.5-24.3-36.29-38.306-88.708-68.547C4801.33,938.492,4780.361,924.73,4766,934.46Z" transform="translate(123 965)" fill="#fb0"/></g></svg>