<svg xmlns="http://www.w3.org/2000/svg" xmlns:xlink="http://www.w3.org/1999/xlink" width="400" height="400" viewBox="0 0 400 400"><defs><clipPath id="b"><rect width="400" height="400"/></clipPath></defs><g id="a" clip-path="url(#b)"><rect width="400" height="400" fill="rgba(255,255,255,0)"/><path d="M-4436.5-458a192.91,192.91,0,0,1-38.594-3.891,190.537,190.537,0,0,1-35.947-11.159,191.494,191.494,0,0,1-32.529-17.656,192.846,192.846,0,0,1-28.341-23.384,192.85,192.85,0,0,1-23.384-28.342,191.491,191.491,0,0,1-17.656-32.529,190.537,190.537,0,0,1-11.158-35.947A192.925,192.925,0,0,1-4628-649.5a192.924,192.924,0,0,1,3.891-38.594,190.533,190.533,0,0,1,11.158-35.947,191.49,191.49,0,0,1,17.656-32.529,192.845,192.845,0,0,1,23.384-28.341,192.848,192.848,0,0,1,28.341-23.384,191.514,191.514,0,0,1,32.529-17.656,190.552,190.552,0,0,1,35.947-11.158A192.907,192.907,0,0,1-4436.5-841a192.91,192.91,0,0,1,38.594,3.891,190.541,190.541,0,0,1,35.947,11.158,191.521,191.521,0,0,1,32.529,17.656,192.847,192.847,0,0,1,28.341,23.384,192.863,192.863,0,0,1,23.384,28.341,191.518,191.518,0,0,1,17.656,32.529,190.557,190.557,0,0,1,11.158,35.947A192.926,192.926,0,0,1-4245-649.5a192.927,192.927,0,0,1-3.891,38.594,190.561,190.561,0,0,1-11.158,35.947,191.522,191.522,0,0,1-17.656,32.529,192.862,192.862,0,0,1-23.384,28.342,192.845,192.845,0,0,1-28.341,23.384,191.525,191.525,0,0,1-32.529,17.656,190.55,190.55,0,0,1-35.947,11.159A192.91,192.91,0,0,1-4436.5-458Zm-52.325-301.582h0a17.576,17.576,0,0,0-10.179,3.04c-5.467,3.7-8.148,9.512-9.256,20.049-1.086,10.338-.609,25.417.05,46.286v.042c.421,13.349.946,29.963,1.191,49.549.4,14.507.122,28.17-.127,40.224v.027c-.3,14.509-.559,27.04.4,37.161,1.048,11.025,3.507,18.138,7.737,22.385a14.331,14.331,0,0,0,10.164,3.619c6.857,0,16.731-3.149,32.018-10.21,13.846-6.4,32.6-16.169,64.723-33.73,38.394-20.989,57.6-31.844,67.84-40.674,10.041-8.66,11.026-15.135,10.787-26.865-.188-9.23-5.322-17.3-16.645-26.155-10.488-8.2-25.194-16.307-43.813-26.566-8.521-4.7-18.176-10.014-28.25-15.826-5.218-2.994-10.089-5.8-14.8-8.516l-.078-.045c-19-10.949-34-19.6-45.468-25.259-11.954-5.9-20.065-8.536-26.3-8.536Z" transform="translate(4637 850)" fill="#989898"/></g></svg>