<svg version="1" xmlns="http://www.w3.org/2000/svg" width="1972" height="1972" viewBox="0 0 1479.000000 1479.000000"><path d="M341 1c-23.2 2.3-37.3 4.3-50.5 7.5-3.3.8-7.3 1.7-9 1.9-4.9.9-29.3 8.2-38.5 11.6-55 20.3-105.3 53.7-143.7 95.5-5.1 5.5-12 13.4-15.4 17.5-3.3 4.1-6.9 8.4-7.8 9.5-10.7 13.1-27.6 40.2-37.6 60.5-7.9 16-22.5 52.2-22.5 55.9 0 .4-.9 3.6-2 7.1-4.8 15.1-10.9 48.7-12.7 70-1 11.9-1.1 789.2-.1 801.5 6.2 77.6 37.4 151.7 89.2 212 7.2 8.4 26.7 27.9 35.6 35.6 14 12.1 37 29.4 45.7 34.4 1 .5 4.5 2.6 7.8 4.6 19.7 11.9 42.6 22.8 64.5 30.7 23.5 8.5 58.9 16.9 79 18.7 3.6.4 7 .8 7.7 1 .6.2 6.7.7 13.5 1.1 15.8 1 772.3 1 788.3.1 6.6-.4 15.4-1.2 19.5-1.7s9.1-1.2 11-1.4c8.8-1.1 27.8-5 40.5-8.2 30.5-7.7 68.4-23.8 96.5-40.8 15.9-9.7 44.3-30.3 49.5-36.1.6-.6 2.4-2.1 4-3.3 6.5-5 26-24.9 35.5-36.2 3-3.6 5.7-6.7 6-7 1.3-1.2 11.1-14.2 16.8-22.2 11.8-16.4 26.6-42.8 35.7-63.3 4.5-10.2 15.2-39.8 17-47.1 2.6-10.5 6.6-27.5 7-29.9.3-1.7.8-3.7 1-4.5.2-.8.7-3.8 1-6.5.4-2.8.8-5.7 1-6.5.2-.8.6-3.8 1-6.5.3-2.8.7-6.6 1-8.5 1.6-12.7 1.8-64.8 1.8-408.5 0-344.1-.2-397.5-1.8-408.8-2.9-21.6-3.8-27.3-5.2-33.7-3.2-15.5-3-14.7-6.7-28.5-9.6-35.6-30.6-79.6-52.9-111-14.1-20-24.6-32.3-41.2-49-55.2-55.4-127.7-92.4-203.5-104-2.5-.4-5.2-.9-6-1-.8-.1-4.6-.6-8.5-1-3.8-.4-10.4-1.1-14.5-1.5-9.3-1-786.6-1-797 0zm868 231.3c.8.3 4.6 1.5 8.4 2.6 8.9 2.7 17.6 7.7 24.8 14.1 3.3 3 15.5 18.2 29.5 36.8 13.1 17.4 24 31.9 24.3 32.2.3.3 7.9 10.4 17 22.5s16.7 22.2 17.1 22.5c1.4 1.3 7.9 13 9.8 17.7 8.3 21.1 4.5 48.7-9.2 66.8-1.6 2.2-6.9 7.8-11.7 12.5-4.8 4.7-12.4 12.5-17 17.5-10.5 11.3-19.4 20.9-28.5 30.5-11.6 12.4-32.8 35.1-38 40.9-2.8 3-6.6 7.1-8.5 9.1-1.9 2-8.4 9-14.5 15.5-6 6.5-11.8 12.7-12.8 13.8-1.8 1.8-1.7 2.2 2.1 12.5 9.9 26.7 19.7 62.9 22.7 83.7.4 2.2.8 4.7 1 5.5.7 2.2 2.3 14.6 3 22 .4 3.6.8 7.2 1 8 1.1 4.5 1.9 24.6 2 48 0 31.1-.8 43.5-4.6 69.5-22.3 154.7-119.9 289.9-259.9 360.1-20.4 10.2-24.7 12.1-43.5 19.4-40.6 15.6-87.3 26.7-124.5 29.5-4.7.4-9.6.9-11 1.1-2.1.3-46.5 1.7-49.5 1.5-.5 0-3.2-.2-6-.5-2.7-.2-9.9-.7-15.9-1-5.9-.4-12.9-.9-15.5-1.2-2.5-.2-6.6-.7-9.1-1-2.5-.2-7-.9-10-1.4-3-.5-7.3-1.2-9.5-1.5-30.7-4.5-83.3-20-112.2-33.1-57.9-26.2-105.5-58.6-147-100.1-5-5-9.5-8.8-9.9-8.5-.4.4-.4.2-.1-.4.4-.7-.8-2.5-2.6-4.1-4-3.5-23.1-25.9-31.3-36.8-9.2-12.1-20.4-28.3-20.4-29.3 0-.5-.7-1.6-1.6-2.3-.9-.7-2-2.2-2.5-3.4-.5-1.1-1.8-3.4-2.9-5-7.9-12.1-21-37.2-31.2-59.5-11.5-25.2-27.4-76.5-31.3-101-.3-1.9-1-5.8-1.5-8.5-.5-2.8-1.2-7-1.5-9.5-.3-2.5-.7-5.2-.9-6-.3-.8-.8-4.7-1.1-8.5-.4-3.9-.8-8.1-1-9.5-2.7-21.7-2.7-74.9 0-97 .2-1.9.7-6 1-9 1.5-13.4 6-39.7 8.5-49 .5-1.9 1.1-4.6 1.4-6 2-9.6 7.5-29 11.6-40.6l2.9-8.2-70.7-69.8c-38.8-38.5-73.1-72.5-76.3-75.8-16.9-17.4-22.8-45.9-14.4-69.9 2.9-8.5 6.6-14.7 17.4-29 4.6-6.2 17.4-23.1 28.3-37.7 10.9-14.6 20.4-27.2 21.1-28 .7-.8 6.5-8.6 13-17.3 6.6-8.6 14.8-18.4 18.3-21.6 9.4-8.5 21.9-14.7 34.4-17 4.4-.8 20.5-.7 24.5.1 10 2 20.5 6.1 26 10.2 1.7 1.2 8.6 5.1 15.5 8.6 15.6 7.8 55.8 28.3 87.5 44.5 13.2 6.7 38.4 19.6 56 28.5 17.6 8.9 32.5 16.7 33.2 17.2.7.6 2.5.1 5.1-1.6 4.7-2.9 33.3-16.9 45.2-22.1 27.8-12.1 72.2-25.7 98-30 1.9-.3 6-1 9-1.5 8.3-1.4 11-1.8 17-2.5 3-.3 6.2-.8 7-1 1.5-.4 4.8-.7 21-2.2 11.2-1 62-1 73.5 0 8.2.7 24.8 2.6 36.5 4.3 6.7.9 29.7 5.3 36 6.9 3 .8 6.6 1.6 8 1.9 9 1.7 44.1 13.2 61.5 20.1 6.6 2.6 20.1 8.6 30 13.4l18 8.7 4-2.7c2.2-1.4 6.9-4.2 10.5-6.2 3.6-1.9 8.9-4.9 11.8-6.6 2.9-1.7 5.4-3.1 5.6-3.1.2 0 4.6-2.4 9.7-5.3 5.2-2.9 12.4-7 16.1-9 3.6-2 15.8-8.8 27-15 11.1-6.3 23.5-13.1 27.3-15.2 3.9-2.1 7.5-4.1 8-4.5.6-.4 3.9-2.3 7.5-4.3 3.6-1.9 9.7-5.3 13.5-7.4 3.9-2.2 13.3-7.4 21-11.7 7.7-4.3 14.7-8.4 15.5-9.1 5.3-4.6 21.7-10.7 32-11.7 4.6-.5 19.1-.1 21 .5z"/></svg>