<svg xmlns="http://www.w3.org/2000/svg" xmlns:xlink="http://www.w3.org/1999/xlink" width="407" height="408" viewBox="0 0 407 408"><defs><clipPath id="b"><rect width="407" height="408"/></clipPath></defs><g id="a" clip-path="url(#b)"><rect width="407" height="408" fill="rgba(255,255,255,0)"/><g transform="translate(-17 -16)"><g transform="translate(17 16)" fill="none"><path d="M203.446,0c112.36,0,203.446,91.334,203.446,204S315.806,408,203.446,408,0,316.666,0,204,91.086,0,203.446,0Z" stroke="none"/><path d="M 203.4456481933594 37 C 111.6672058105469 37 37 111.9159240722656 37 204 C 37 296.0841064453125 111.6672058105469 371 203.4456481933594 371 C 295.22412109375 371 369.8912963867188 296.0841064453125 369.8912963867188 204 C 369.8912963867188 111.9159240722656 295.22412109375 37 203.4456481933594 37 M 203.4456481933594 0 C 315.8055419921875 0 406.8912963867188 91.33392333984375 406.8912963867188 204 C 406.8912963867188 316.6660766601563 315.8055419921875 408 203.4456481933594 408 C 91.08572387695313 408 0 316.6660766601563 0 204 C 0 91.33392333984375 91.08572387695313 0 203.4456481933594 0 Z" stroke="none" fill="#08f"/></g><g transform="translate(21 436) rotate(-90)"><line x2="123" y2="96" transform="translate(154.5 103.5)" fill="none" stroke="#08f" stroke-linecap="round" stroke-width="47"/><line y1="96" x2="123" transform="translate(154.5 200.5)" fill="none" stroke="#08f" stroke-linecap="round" stroke-width="47"/></g></g></g></svg>